<svg width="38" height="38" viewBox="0 0 38 38" fill="none" xmlns="http://www.w3.org/2000/svg">
<ellipse cx="19" cy="19" rx="19" ry="19" transform="matrix(0 1 1 0 0 0)" fill="white"/>
<path d="M19.6509 20.2835C19.5657 20.3694 19.4643 20.4376 19.3526 20.4842C19.2409 20.5307 19.1211 20.5547 19 20.5547C18.879 20.5547 18.7592 20.5307 18.6475 20.4842C18.5358 20.4376 18.4344 20.3694 18.3492 20.2835L14.1509 16.076C14.0657 15.9901 13.9643 15.9219 13.8526 15.8754C13.7409 15.8288 13.621 15.8049 13.5 15.8049C13.379 15.8049 13.2592 15.8288 13.1475 15.8754C13.0358 15.9219 12.9344 15.9901 12.8492 16.076C12.6785 16.2478 12.5826 16.4801 12.5826 16.7223C12.5826 16.9644 12.6785 17.1968 12.8492 17.3685L17.0567 21.576C17.5723 22.091 18.2713 22.3802 19 22.3802C19.7288 22.3802 20.4278 22.091 20.9434 21.576L25.1509 17.3685C25.3202 17.1978 25.4157 16.9673 25.4167 16.7268C25.4174 16.6062 25.3943 16.4866 25.3487 16.3749C25.3031 16.2632 25.2358 16.1617 25.1509 16.076C25.0657 15.9901 24.9643 15.9219 24.8526 15.8754C24.7409 15.8288 24.6211 15.8049 24.5001 15.8049C24.379 15.8049 24.2592 15.8288 24.1475 15.8754C24.0358 15.9219 23.9344 15.9901 23.8492 16.076L19.6509 20.2835Z" fill="#FD9222"/>
</svg>
